<svg version="1.2" xmlns="http://www.w3.org/2000/svg" viewBox="0 0 298 270" width="298" height="270"><defs><linearGradient id="P" gradientUnits="userSpaceOnUse"/><linearGradient id="g1" x2="1" href="#P" gradientTransform="matrix(143.214,0,0,143.214,19.318,56.413)"><stop stop-color="#fcc500"/><stop offset="1" stop-color="#ed5f00"/></linearGradient><linearGradient id="g2" x2="1" href="#P" gradientTransform="matrix(143.214,0,0,143.214,128.304,19.034)"><stop stop-color="#d259ff"/><stop offset="1" stop-color="#8900bd"/></linearGradient><linearGradient id="g3" x2="1" href="#P" gradientTransform="matrix(143.214,0,0,143.214,90.383,105.797)"><stop stop-color="#00fcda"/><stop offset="1" stop-color="#0078bd"/></linearGradient><linearGradient id="g4" x2="1" href="#P" gradientTransform="matrix(143.213,0,0,143.213,19.318,105.797)"><stop offset="0" stop-color="#312ea6"/><stop offset="1" stop-color="#1d1b62"/></linearGradient><linearGradient id="g5" x2="1" href="#P" gradientTransform="matrix(-314.536,314.536,-314.536,-314.536,392.49,-78.416)"><stop stop-color="#00e3c4"/><stop offset="1" stop-color="#00a687"/></linearGradient></defs><style>.a{fill:url(#g1)}.b{fill:url(#g2)}.c{fill:url(#g3)}.d{fill:url(#g4)}.e{fill:url(#g5)}</style><path class="a" d="m19.3 75.3c0 10.5 8.5 19 18.9 19h86.5v86.4c0 10.5 8.4 18.9 18.9 18.9 10.5 0 18.9-8.4 18.9-18.9v-124.3h-124.3c-10.4 0-18.9 8.5-18.9 18.9z"/><path class="b" d="m128.3 38c0 10.4 8.5 18.9 18.9 18.9h86.5v86.4c0 10.5 8.4 18.9 18.9 18.9 10.4 0 18.9-8.4 18.9-18.9v-124.3h-124.3c-10.4 0-18.9 8.5-18.9 19z"/><path class="c" d="m90.4 124.7c0 10.5 8.5 19 18.9 19h86.4v86.4c0 10.4 8.5 18.9 19 18.9 10.4 0 18.9-8.5 18.9-18.9v-124.3h-124.3c-10.4 0-18.9 8.5-18.9 18.9z"/><path class="d" d="m124.7 105.8v37.9h37.8v-37.9z"/><path class="e" d="m88.2 204.1c-12 0-21.8-9.8-21.8-21.8 0-12 9.8-21.8 21.8-21.8 12.1 0 21.8 9.8 21.8 21.8 0 12-9.7 21.8-21.8 21.8z"/></svg>