<svg version="1.2" xmlns="http://www.w3.org/2000/svg" viewBox="0 0 844 284" width="484" height="136"><defs><linearGradient id="P" gradientUnits="userSpaceOnUse"/><linearGradient id="g1" x2="1" href="#P" gradientTransform="matrix(143.214,0,0,143.214,43.318,70.413)"><stop stop-color="#fcc500"/><stop offset="1" stop-color="#ed5f00"/></linearGradient><linearGradient id="g2" x2="1" href="#P" gradientTransform="matrix(143.214,0,0,143.214,152.304,33.034)"><stop stop-color="#d259ff"/><stop offset="1" stop-color="#8900bd"/></linearGradient><linearGradient id="g3" x2="1" href="#P" gradientTransform="matrix(143.214,0,0,143.214,114.383,119.797)"><stop stop-color="#00fcda"/><stop offset="1" stop-color="#0078bd"/></linearGradient><linearGradient id="g4" x2="1" href="#P" gradientTransform="matrix(143.213,0,0,143.213,43.318,119.797)"><stop offset="0" stop-color="#312ea6"/><stop offset="1" stop-color="#1d1b62"/></linearGradient><linearGradient id="g5" x2="1" href="#P" gradientTransform="matrix(-314.536,314.536,-314.536,-314.536,416.49,-64.416)"><stop stop-color="#00e3c4"/><stop offset="1" stop-color="#00a687"/></linearGradient></defs><style>.a{fill:url(#g1)}.b{fill:url(#g2)}.c{fill:url(#g3)}.d{fill:url(#g4)}.e{fill:url(#g5)}.f{fill:#0072ff}.g{fill:#757575}</style><path class="a" d="m43.3 89.3c0 10.5 8.5 19 18.9 19h86.5v86.4c0 10.5 8.4 18.9 18.9 18.9 10.5 0 18.9-8.4 18.9-18.9v-124.3h-124.3c-10.4 0-18.9 8.5-18.9 18.9z"/><path class="b" d="m152.3 52c0 10.4 8.5 18.9 18.9 18.9h86.5v86.4c0 10.5 8.4 18.9 18.9 18.9 10.4 0 18.9-8.4 18.9-18.9v-124.3h-124.3c-10.4 0-18.9 8.5-18.9 19z"/><path class="c" d="m114.4 138.7c0 10.5 8.5 19 18.9 19h86.4v86.4c0 10.4 8.5 18.9 19 18.9 10.4 0 18.9-8.5 18.9-18.9v-124.3h-124.3c-10.4 0-18.9 8.5-18.9 18.9z"/><path class="d" d="m148.7 119.8v37.9h37.8v-37.9z"/><path class="e" d="m112.2 218.1c-12 0-21.8-9.8-21.8-21.8 0-12 9.8-21.8 21.8-21.8 12.1 0 21.8 9.8 21.8 21.8 0 12-9.7 21.8-21.8 21.8z"/><path class="f" d="m356.5 167h-3.9q-3.4 0-5.8-2.5-2.3-2.4-2.3-5.8v-89.3q0-3.3 2.3-5.8 2.4-2.4 5.8-2.4h3.9q3.3 0 5.8 2.4 2.5 2.5 2.5 5.8v32.9q0 1.2 1.1 1.2h36.3q1.1 0 1.1-1.2v-32.9q0-3.3 2.5-5.8 2.5-2.4 5.8-2.4h3.9q3.3 0 5.7 2.4 2.4 2.5 2.4 5.8v89.3q0 3.4-2.4 5.8-2.4 2.5-5.7 2.5h-3.9q-3.3 0-5.8-2.5-2.5-2.4-2.5-5.8v-38.4q0-1.3-1.1-1.3h-36.3q-1.1 0-1.1 1.3v38.4q0 3.4-2.5 5.8-2.5 2.5-5.8 2.5zm119.3-63.4q-7.4 0-11.4 4.2-3.9 4.1-5 13.2 0 1.2 1.2 1.2h28.4q1.2 0 1.2-1.2-0.6-17.4-14.4-17.4zm3.6 64.8q-18.9 0-29.2-9.8-10.2-10-10.2-29.3 0-19.1 9.1-29.1 9.2-10 26.4-10 32.2 0 33.1 36.5 0.1 3.5-2.5 5.8-2.6 2.3-6.1 2.3h-39.5q-1.4 0-1.1 1.3 1.1 9.7 6.4 14.2 5.5 4.4 16 4.4 6.5 0 14.5-2.2 2.6-0.7 4.8 0.9 2.3 1.6 2.3 4.3 0 3.4-2.1 6-1.8 2.4-5 3-8.2 1.7-16.9 1.7zm61.2-1.4h-3.7q-3.4 0-5.8-2.5-2.5-2.4-2.5-5.8v-92.2q0-3.3 2.5-5.8 2.4-2.4 5.8-2.4h3.7q3.4 0 5.8 2.4 2.5 2.5 2.5 5.8v92.2q0 3.4-2.5 5.8-2.4 2.5-5.8 2.5zm46.1 0h-3.7q-3.4 0-5.8-2.5-2.5-2.4-2.5-5.8v-92.2q0-3.3 2.5-5.8 2.4-2.4 5.8-2.4h3.7q3.4 0 5.8 2.4 2.5 2.5 2.5 5.8v92.2q0 3.4-2.5 5.8-2.4 2.5-5.8 2.5zm77-56.7q-4.2-6.1-12.7-6.1-8.6 0-12.9 6.1-4.2 6-4.2 19 0 13.1 4.2 19.1 4.3 6 12.9 6 8.5 0 12.7-6 4.4-6 4.4-19.1 0-13-4.4-19zm14.3 48q-9.6 10.1-27 10.1-17.4 0-27.1-10.1-9.6-10.3-9.6-29 0-18.7 9.6-28.9 9.7-10.2 27.1-10.2 17.4 0 27 10.2 9.7 10.2 9.7 28.9 0 18.7-9.7 29zm31.7 0.6l-18.5-89.6q-0.8-3.2 1.3-5.7 2.1-2.4 5.3-2.4h4.2q3.7 0 6.3 2.3 2.6 2.3 3.2 5.8l12 76.2q0 0.2 0.1 0.2 0.3 0 0.3-0.2l11.6-76.2q0.6-3.5 3.2-5.8 2.6-2.3 6.2-2.3h8.7q3.7 0 6.3 2.3 2.6 2.3 3.2 5.8l11.7 76.2q0 0.2 0.2 0.2 0.1 0 0.1-0.2l12-76.2q0.6-3.5 3.2-5.8 2.6-2.3 6.3-2.3h3.6q3.2 0 5.2 2.4 2 2.5 1.5 5.7l-18.6 89.6q-0.7 3.5-3.5 5.8-2.7 2.3-6.4 2.3h-7.6q-3.7 0-6.4-2.3-2.6-2.3-3.2-5.8l-12-76.3q0-0.1-0.2-0.1-0.1 0-0.1 0.1l-12.1 76.3q-0.6 3.5-3.3 5.8-2.6 2.3-6.2 2.3h-7.7q-3.7 0-6.4-2.3-2.8-2.3-3.5-5.8z"/><path class="g" d="m360.6 221.3c4.3 0 6.3-2.2 6.3-4.6 0-5.5-8.6-3.6-8.6-6.3 0-1 0.8-1.7 2.8-1.7 1.3 0 2.8 0.3 4.1 1.1l1.1-2.6c-1.4-0.9-3.3-1.3-5.2-1.3-4.2 0-6.2 2.1-6.2 4.6 0 5.5 8.6 3.6 8.6 6.4 0 0.9-0.8 1.6-2.8 1.6-1.8 0-3.7-0.6-4.9-1.6l-1.2 2.6c1.3 1.1 3.7 1.8 6 1.8zm19.1 0c4.6 0 8.1-3.3 8.1-7.7 0-4.5-3.5-7.7-8.1-7.7-4.7 0-8.2 3.3-8.2 7.7 0 4.4 3.5 7.7 8.2 7.7zm0-3c-2.7 0-4.7-1.9-4.7-4.7 0-2.8 2-4.8 4.7-4.8 2.6 0 4.6 2 4.6 4.8 0 2.8-2 4.7-4.6 4.7zm13.9 2.7h10.8v-2.8h-7.4v-12h-3.4zm22.3 0.2c4.3 0 6.8-2.4 6.8-6.8v-8.3h-3.4v8.2c0 2.8-1.2 4-3.3 4-2.1 0-3.3-1.2-3.3-4v-8.2h-3.5v8.3c0 4.4 2.5 6.8 6.7 6.8zm20.6-2.9c-2.7 0-4.7-2-4.7-4.8 0-2.8 2-4.7 4.7-4.7 1.5 0 2.8 0.6 3.8 1.7l2.2-2c-1.4-1.7-3.6-2.6-6.1-2.6-4.7 0-8.1 3.2-8.1 7.6 0 4 2.8 7 6.6 7.6l-0.4 1.9h0.7c0.7 0 1 0.3 1 0.6 0 0.5-0.3 0.7-1.1 0.7-0.5 0-1-0.1-1.4-0.3l-0.5 1.4c0.5 0.3 1.3 0.5 2 0.5 1.9 0 3.1-0.8 3.1-2.1 0-0.9-0.5-1.6-1.8-1.8l0.2-0.8c2.4-0.1 4.4-1 5.8-2.6l-2.2-2.1c-1 1.2-2.3 1.8-3.8 1.8zm19.9-13.3c1.5 0 2.5-1.2 2.5-3.1h-1.7c0 0.7-0.4 1.2-1 1.2-0.7 0-1.5-1.4-3-1.4-1.4 0-2.4 1.2-2.4 3.1h1.6c0.1-0.7 0.5-1.2 1.1-1.2 0.7 0 1.5 1.4 2.9 1.4zm-1.6 16.2c4.7 0 8.2-3.2 8.2-7.7 0-4.4-3.5-7.6-8.2-7.6-4.6 0-8.1 3.2-8.1 7.6 0 4.4 3.5 7.7 8.1 7.7zm0-2.9c-2.6 0-4.6-1.9-4.6-4.8 0-2.8 2-4.7 4.6-4.7 2.7 0 4.7 1.9 4.7 4.7 0 2.9-2 4.8-4.7 4.8zm17.3-0.1v-3.4h6.9v-2.7h-6.9v-3.2h7.8v-2.8h-11.2v14.9h11.5v-2.8zm18.9 3c4.2 0 6.3-2.1 6.3-4.6 0-5.4-8.6-3.6-8.6-6.3 0-0.9 0.7-1.7 2.8-1.7 1.3 0 2.7 0.4 4.1 1.2l1.1-2.6c-1.4-0.9-3.3-1.3-5.2-1.3-4.2 0-6.3 2.1-6.3 4.6 0 5.5 8.7 3.6 8.7 6.4 0 0.9-0.8 1.6-2.9 1.6-1.8 0-3.6-0.7-4.9-1.6l-1.1 2.6c1.3 1 3.6 1.7 6 1.7zm35.5-0.5c-0.7 0.8-1.5 1.1-2.4 1.1-0.7 0-1.4-0.3-2.1-1 3.2-1 5.3-3.8 5.3-7.3 0-4.4-3.4-7.6-8.1-7.6-4.7 0-8.1 3.2-8.1 7.6 0 4.1 2.8 7.1 6.9 7.6 2.3 2.5 3.8 3.3 6.1 3.3 1.6 0 3-0.7 4-1.9zm-12-7.1c0-2.9 2-4.8 4.6-4.8 2.7 0 4.7 1.9 4.7 4.8 0 2.8-2 4.7-4.7 4.7-2.6 0-4.6-1.9-4.6-4.7zm25.1 7.6c4.2 0 6.7-2.4 6.7-6.8v-8.3h-3.4v8.2c0 2.8-1.2 4-3.3 4-2 0-3.3-1.2-3.3-4v-8.2h-3.4v8.3c0 4.4 2.5 6.8 6.7 6.8zm16.7-3v-3.4h6.9v-2.7h-6.9v-3.2h7.8v-2.8h-11.2v14.9h11.5v-2.8zm34-12.1l-4.5 10.6-4.6-10.6h-3.7l6.4 14.9h3.4l6.5-14.9zm14.8 15.1c4.7 0 8.1-3.2 8.1-7.6 0-4.5-3.4-7.7-8.1-7.7-4.7 0-8.1 3.2-8.1 7.7 0 4.4 3.4 7.6 8.1 7.6zm0-2.9c-2.7 0-4.6-1.9-4.6-4.7 0-2.9 1.9-4.8 4.6-4.8 2.6 0 4.6 1.9 4.6 4.8 0 2.8-2 4.7-4.6 4.7zm21 2.9c2.6 0 4.7-0.9 6.1-2.6l-2.2-2.1c-1 1.2-2.2 1.8-3.7 1.8-2.8 0-4.8-1.9-4.8-4.7 0-2.8 2-4.8 4.8-4.8 1.5 0 2.7 0.6 3.7 1.7l2.2-2c-1.4-1.7-3.5-2.6-6.1-2.6-4.6 0-8 3.2-8 7.7 0 4.4 3.4 7.6 8 7.6zm17.2-17.9l1.9 1.6h2.4l-2.8-3h-2.9l-2.8 3h2.4zm-2.2 14.9v-3.4h6.9v-2.7h-6.9v-3.2h7.8v-2.8h-11.2v14.9h11.5v-2.8zm29.6-12.1h-6.5v14.9h3.5v-4.1h3c3.9 0 6.4-2.1 6.4-5.4 0-3.3-2.5-5.4-6.4-5.4zm-0.2 8h-2.8v-5.2h2.8c2.1 0 3.1 1 3.1 2.6 0 1.6-1 2.6-3.1 2.6zm25.4 6.9l-3.3-4.8c1.9-0.8 3-2.4 3-4.7 0-3.3-2.5-5.4-6.4-5.4h-6.5v14.9h3.5v-4.1h3 0.1l2.9 4.1zm-3.8-9.5c0 1.6-1 2.6-3.1 2.6h-2.8v-5.2h2.8c2.1 0 3.1 1 3.1 2.6zm12.8 6.7v-3.4h6.9v-2.7h-6.9v-3.2h7.8v-2.8h-11.2v14.9h11.5v-2.8zm21.1 3c2.5 0 4.7-0.9 6.1-2.6l-2.2-2c-1 1.1-2.3 1.7-3.7 1.7-2.8 0-4.8-1.9-4.8-4.7 0-2.8 2-4.8 4.8-4.8 1.4 0 2.7 0.6 3.7 1.8l2.2-2.1c-1.4-1.7-3.6-2.6-6.1-2.6-4.6 0-8.1 3.2-8.1 7.7 0 4.4 3.5 7.6 8.1 7.6zm11.6-0.2h3.4v-14.9h-3.4zm15 0.3c4.2 0 6.3-2.1 6.3-4.6 0-5.5-8.6-3.6-8.6-6.3 0-0.9 0.7-1.7 2.8-1.7 1.3 0 2.7 0.4 4.1 1.2l1.1-2.6c-1.4-0.9-3.3-1.4-5.2-1.4-4.2 0-6.2 2.1-6.2 4.7 0 5.5 8.6 3.6 8.6 6.4 0 0.9-0.8 1.5-2.9 1.5-1.8 0-3.6-0.6-4.9-1.5l-1.1 2.6c1.3 1 3.6 1.7 6 1.7zm22.9-0.3h3.6l-6.6-14.8h-3.4l-6.6 14.8h3.5l1.3-3.1h6.9zm-7.1-5.8l2.4-5.7 2.3 5.7z"/></svg>