<svg version="1.2" xmlns="http://www.w3.org/2000/svg" viewBox="0 0 499 133" width="499" height="133"><style>.a{fill:#0072ff}</style><path class="a" d="m33.5 119h-3.9q-3.4 0-5.8-2.5-2.3-2.4-2.3-5.8v-89.3q0-3.3 2.3-5.8 2.4-2.4 5.8-2.4h3.9q3.3 0 5.8 2.4 2.5 2.5 2.5 5.8v32.9q0 1.2 1.1 1.2h36.3q1.1 0 1.1-1.2v-32.9q0-3.3 2.5-5.8 2.5-2.4 5.8-2.4h3.9q3.3 0 5.7 2.4 2.4 2.5 2.4 5.8v89.3q0 3.4-2.4 5.8-2.4 2.5-5.7 2.5h-3.9q-3.3 0-5.8-2.5-2.5-2.4-2.5-5.8v-38.4q0-1.3-1.1-1.3h-36.3q-1.1 0-1.1 1.3v38.4q0 3.4-2.5 5.8-2.5 2.5-5.8 2.5zm119.3-63.4q-7.4 0-11.4 4.2-3.9 4.1-5 13.2 0 1.2 1.2 1.2h28.4q1.2 0 1.2-1.2-0.6-17.4-14.4-17.4zm3.6 64.8q-18.9 0.1-29.2-9.8-10.2-10-10.2-29.3 0-19.1 9.1-29.1 9.2-10 26.4-10 32.2 0 33.1 36.5 0.1 3.5-2.5 5.8-2.6 2.3-6.1 2.3h-39.5q-1.4 0-1.1 1.3 1.1 9.7 6.4 14.2 5.5 4.4 16 4.4 6.5 0 14.5-2.2 2.6-0.7 4.8 0.9 2.3 1.6 2.3 4.3 0 3.4-2.1 6-1.8 2.4-5 3-8.2 1.8-16.9 1.8zm61.2-1.5h-3.7q-3.4 0-5.8-2.5-2.5-2.4-2.5-5.8v-92.2q0-3.3 2.5-5.8 2.4-2.4 5.8-2.4h3.7q3.4 0 5.8 2.4 2.5 2.5 2.5 5.8v92.2q0 3.4-2.5 5.8-2.4 2.5-5.8 2.5zm46.1 0h-3.7q-3.4 0-5.8-2.5-2.5-2.4-2.5-5.8v-92.2q0-3.3 2.5-5.8 2.4-2.4 5.8-2.4h3.7q3.4 0 5.9 2.4 2.4 2.5 2.4 5.8v92.2q0 3.4-2.4 5.8-2.5 2.5-5.9 2.5zm77-56.7q-4.2-6.1-12.7-6.1-8.6 0-12.9 6.1-4.2 6-4.2 19 0 13.1 4.2 19.1 4.3 6 12.9 6 8.5 0 12.7-6 4.4-6 4.4-19.1 0-13-4.4-19zm14.3 48q-9.6 10.2-27 10.2-17.4 0-27.1-10.2-9.6-10.3-9.6-29 0-18.7 9.6-28.9 9.7-10.2 27.1-10.2 17.4 0 27 10.2 9.7 10.2 9.7 28.9 0 18.7-9.7 29zm31.7 0.6l-18.5-89.6q-0.8-3.2 1.3-5.7 2.1-2.4 5.3-2.4h4.2q3.7 0 6.3 2.3 2.6 2.3 3.2 5.8l12 76.2q0 0.2 0.1 0.2 0.3 0 0.3-0.2l11.6-76.2q0.6-3.5 3.2-5.8 2.6-2.3 6.2-2.3h8.7q3.7 0 6.3 2.3 2.6 2.3 3.2 5.8l11.7 76.2q0 0.2 0.2 0.2 0.1 0 0.1-0.2l12-76.2q0.6-3.5 3.2-5.8 2.6-2.3 6.3-2.3h3.6q3.2 0 5.2 2.4 2 2.5 1.5 5.7l-18.6 89.6q-0.7 3.5-3.5 5.8-2.7 2.3-6.4 2.3h-7.6q-3.7 0-6.4-2.3-2.6-2.3-3.2-5.8l-12-76.3q0-0.1-0.2-0.1-0.1 0-0.1 0.1l-12.1 76.3q-0.6 3.5-3.3 5.8-2.6 2.3-6.2 2.3h-7.7q-3.7 0-6.4-2.3-2.8-2.3-3.5-5.8z"/></svg>